# AST/ASF file generated using VICON BodyLanguage
# -----------------------------------------------
:version 1.10
:name VICON
:units
  mass 1.0
  length 0.45
  angle deg
:documentation
   .ast/.asf automatically generated from VICON data using
   VICON BodyBuilder and BodyLanguage model FoxedUp or BRILLIANT.MOD
:root
   order TX TY TZ RX RY RZ
   axis XYZ
   position 0 0 0  
   orientation 0 0 0 
:bonedata
  begin
     id 1 
     name lhipjoint
     direction 0.573633 -0.743009 0.344793 
     length 2.46257 
     axis 0 0 0  XYZ
  end
  begin
     id 2 
     name lfemur
     direction 0.34202 -0.939693 0  
     length 7.3842  
     axis 0 0 20  XYZ
    dof rx ry rz
    limits (-160.0 20.0)
           (-70.0 70.0)
           (-60.0 70.0)
  end
  begin
     id 3 
     name ltibia
     direction 0.34202 -0.939693 0   
     length 7.50407   
     axis 0 0 20   XYZ
    dof rx
    limits (-10.0 170.0)
  end
  begin
     id 4 
     name lfoot
     direction 0.110749 -0.304281 0.946123   
     length 1.95925   
     axis -90 7.62852e-016 20   XYZ
    dof rx rz
    limits (-45.0 90.0)
           (-70.0 20.0)
  end
  begin
     id 5 
     name ltoes
     direction 1.53554e-011 -4.21843e-011 1   
     length 0.978318   
     axis -90 7.62852e-016 20   XYZ
    dof rx
    limits (-90.0 20.0)
  end
  begin
     id 6 
     name rhipjoint
     direction -0.488109 -0.791693 0.367385   
     length 2.31113  
     axis 0 0 0  XYZ 
  end
  begin
     id 7 
     name rfemur
     direction -0.34202 -0.939693 0   
     length 7.40965   
     axis 0 0 -20   XYZ
    dof rx ry rz
    limits (-160.0 20.0)
           (-70.0 70.0)
           (-70.0 60.0)
  end
  begin
     id 8 
     name rtibia
     direction -0.34202 -0.939693 0   
     length 7.55548   
     axis 0 0 -20   XYZ
    dof rx
    limits (-10.0 170.0)
 end
 begin
     id 9 
     name rfoot
     direction -0.127594 -0.350561 0.927808   
     length 2.07199  
     axis -90 -7.62852e-016 -20   XYZ
    dof rx rz
    limits (-45.0 90.0)
           (-20.0 70.0)
  end
  begin
     id 10 
     name rtoes
     direction -1.53542e-011 -4.21909e-011 1   
     length 1.02667   
     axis -90 -7.62852e-016 -20   XYZ
    dof rx
    limits (-90.0 20.0)
  end
  begin
     id 11 
     name lowerback
     direction -0.0103342 0.997298 -0.0727278   
     length 2.02836   
     axis 0 0 0   XYZ
    dof rx ry rz
    limits (-20.0 45.0)
           (-30.0 30.0)
           (-30.0 30.0)
  end
  begin
     id 12 
     name upperback
     direction 0.0171146 0.999786 -0.011606   
     length 2.03179   
     axis 0 0 0   XYZ
    dof rx ry rz
    limits (-20.0 45.0)
           (-30.0 30.0)
           (-30.0 30.0)
  end
  begin
     id 13 
     name thorax
     direction 0.0216927 0.999513 0.0224343   
     length 2.03882   
     axis 0 0 0   XYZ
    dof rx ry rz
    limits (-20.0 45.0)
           (-30.0 30.0)
           (-30.0 30.0)
  end
  begin
     id 14 
     name lowerneck
     direction 0.000989287 0.993907 0.110221   
     length 1.75428   
     axis 0 0 0   XYZ
    dof rx ry rz
    limits (-20.0 45.0)
           (-30.0 30.0)
           (-30.0 30.0)
  end
  begin
     id 15 
     name upperneck
     direction -0.0172474 0.994813 -0.100253   
     length 1.77058   
     axis 0 0 0   XYZ
    dof rx ry rz
    limits (-20.0 45.0)
           (-30.0 30.0)
           (-30.0 30.0)
  end
  begin
     id 16
     name head
     direction -0.00486455 0.99894 -0.0457663  
     length 1.77427  
     axis 0 0 0   XYZ
    dof rx ry rz
    limits (-20.0 45.0)
           (-30.0 30.0)
           (-30.0 30.0)
  end
  begin
     id 17 
     name lclavicle
     direction 0.927314 0.333734 -0.169441  
     length 3.97584  
     axis 0 0 0   XYZ
    dof ry rz
    limits (-20.0 10.0)
           (0.0 20.0)
  end
  begin
     id 18 
     name lhumerus
     direction 1 -4.48965e-011 -3.25313e-028   
     length 4.76468   
     axis 180 -30 -90   XYZ
    dof rx ry rz
    limits (-60.0 90.0)
           (-90.0 90.0)
           (-90.0 90.0)
  end
  begin
     id 19
     name lradius
     direction 1 -4.48969e-011 -2.8465e-028   
     length 3.52712   
     axis -180 -30 -90   XYZ
    dof rx
    limits (-10.0 170.0)
  end
  begin
     id 20
     name lwrist
     direction 1 -4.4896e-011 -7.78665e-028   
     length 1.76356   
     axis 1.91374e-015 90 90   XYZ
    dof ry
    limits (-180.0 0.0)
 end
  begin
     id 21 
     name lhand
     direction 1 -4.48959e-011 -1.55733e-027   
     length 0.859564   
     axis 9.9371e-016 90 90   XYZ
    dof rx rz
    limits (-90.0 90.0)
           (-45.0 45.0)
  end
  begin
     id 22 
     name lfingers
     direction 1 -4.48965e-011 -3.11466e-027   
     length 0.693002   
     axis 1.98742e-015 90 90   XYZ
    dof rx
    limits (0.0 90.0)
  end
  begin
     id 23
     name lthumb
     direction 0.707107 -6.34948e-011 0.707107   
     length 0.995017   
     axis -90 45 2.85299e-015   XYZ
    dof rx rz
    limits (-45.0 45.0)
           (-45.0 45.0)
  end
  begin
     id 24 
     name rclavicle
     direction -0.899388 0.348209 -0.264294   
     length 3.68366  
     axis 0 0 0   XYZ 
    dof ry rz
    limits (-10.0 20.0)
           (-20.0 0.0)
  end
  begin
     id 25 
     name rhumerus
     direction -1 -4.48965e-011 -3.01536e-027  
     length 4.90577   
     axis 180 30 90   XYZ
    dof rx ry rz
    limits (-90.0 60.0)
           (-90.0 90.0)
           (-90.0 90.0)
  end
  begin
     id 26 
     name rradius
     direction -1 -4.48966e-011 3.93291e-027   
     length 3.42692   
     axis -180 30 90   XYZ
    dof rx
    limits (-10.0 170.0)
  end
  begin
     id 27 
     name rwrist
     direction -1 -4.48969e-011 -7.78665e-028   
     length 1.71346   
     axis 1.91374e-015 -90 -90   XYZ
    dof ry
    limits (-180.0 0.0)
  end
  begin
     id 28
     name rhand
     direction -1 -4.48967e-011 -1.55733e-027   
     length 0.740957   
     axis 9.9371e-016 -90 -90   XYZ
    dof rx rz
    limits (-90.0 90.0)
           (-45.0 45.0)
  end
  begin
     id 29
     name rfingers
     direction -1 -4.48949e-011 -3.11466e-027   
     length 0.597378   
     axis 1.98742e-015 -90 -90   XYZ
    dof rx
    limits (0.0 90.0)
  end
  begin
     id 30
     name rthumb
     direction -0.707107 -6.34931e-011 0.707107   
     length 0.857719   
     axis -90 -45 -2.85299e-015   XYZ
    dof rx rz
    limits (-45.0 45.0)
           (-45.0 45.0)
  end
:hierarchy
  begin
    root lhipjoint rhipjoint lowerback
    lhipjoint lfemur
    lfemur ltibia
    ltibia lfoot
    lfoot ltoes
    rhipjoint rfemur
    rfemur rtibia
    rtibia rfoot
    rfoot rtoes
    lowerback upperback
    upperback thorax
    thorax lowerneck lclavicle rclavicle
    lowerneck upperneck
    upperneck head
    lclavicle lhumerus
    lhumerus lradius
    lradius lwrist
    lwrist lhand lthumb
    lhand lfingers
    rclavicle rhumerus
    rhumerus rradius
    rradius rwrist
    rwrist rhand rthumb
    rhand rfingers
  end

#!OML:ASF E:\I on waltz\AllaLogoMonkeySwing\Project 1\Capture day 1\Session 1\Subject1.ASF
:FULLY-SPECIFIED
:DEGREES
273
root 0.868803 4.10374 -2.75866 -60.3685 4.06832 -2.50648
lowerback 55.5264 -0.995367 -3.3264
upperback 11.6755 -3.05363 0.128963
thorax -7.92364 -1.51166 2.96614
lowerneck -5.65891 -3.8914 -6.02381
upperneck 9.34223 -5.24131 5.6608
head 4.02177 -2.52458 2.43091
rclavicle 2.37299e-015 -7.70291e-016
rhumerus 15.434 21.8775 -67.108
rradius 79.1554
rwrist -6.55121
rhand 5.88583 -40.3493
rfingers 7.12502
rthumb 31.2145 -67.7096
lclavicle 2.37299e-015 -7.70291e-016
lhumerus 12.952 -16.4082 70.6337
lradius 76.2601
lwrist 1.68045
lhand 20.0703 -1.81934
lfingers 7.12502
lthumb 44.6006 21.8358
rfemur -72.4184 -25.8656 19.3443
rtibia 39.7763
rfoot 171.603 13.2855
rtoes 39.1493
lfemur -72.3401 12.5876 -22.4561
ltibia 43.0824
lfoot 172.857 10.166
ltoes -4.52784
274
root 0.866208 4.09645 -2.77006 -60.642 4.08705 -2.49203
lowerback 55.6103 -0.950423 -3.39653
upperback 11.6901 -3.04299 0.132739
thorax -7.9103 -1.50927 2.99651
lowerneck -5.63546 -3.80043 -5.93994
upperneck 9.60456 -5.10277 5.32671
head 4.07874 -2.46966 2.32226
rclavicle -2.12665e-014 1.79155e-014
rhumerus 15.4553 21.9222 -67.1131
rradius 78.8568
rwrist -6.58613
rhand 5.64632 -40.1308
rfingers 7.12502
rthumb 30.9863 -67.5349
lclavicle -2.12665e-014 1.79155e-014
lhumerus 12.9685 -16.419 70.662
lradius 75.9808
lwrist 1.46456
lhand 19.9451 -1.8292
lfingers 7.12502
lthumb 44.4839 21.8708
rfemur -72.1528 -25.9367 19.2553
rtibia 39.8313
rfoot 171.703 13.3035
rtoes 38.9598
lfemur -72.0361 12.6082 -22.4097
ltibia 43.1802
lfoot 172.878 10.2346
ltoes -4.54299
275
root 0.864402 4.09183 -2.78276 -60.9332 4.01411 -2.49573
lowerback 55.7018 -0.927718 -3.38136
upperback 11.6981 -3.01247 0.130563
thorax -7.91039 -1.49554 2.97385
lowerneck -5.62555 -3.70398 -5.91129
upperneck 9.86171 -4.96393 5.12704
head 4.14167 -2.4101 2.26361
rclavicle 3.38167e-015 1.26725e-015
rhumerus 15.4732 21.9647 -67.1601
rradius 78.5624
rwrist -6.57904
rhand 5.57824 -39.9976
rfingers 7.12502
rthumb 30.9213 -67.414
lclavicle 3.38167e-015 1.26725e-015
lhumerus 13.0227 -16.4491 70.6711
lradius 75.6159
lwrist 1.30666
lhand 19.7112 -1.93993
lfingers 7.12502
lthumb 44.2659 21.8431
rfemur -71.8174 -25.9429 19.2097
rtibia 39.9445
rfoot 171.77 13.3093
rtoes 38.9268
lfemur -71.719 12.6707 -22.2715
ltibia 43.2788
lfoot 172.942 10.2803
ltoes -4.46043
276
root 0.863178 4.08611 -2.79326 -61.1464 3.9466 -2.45734
lowerback 55.6235 -0.889245 -3.41416
upperback 11.7244 -2.98356 0.141818
thorax -7.87408 -1.48586 2.98788
lowerneck -5.56812 -3.5915 -5.95782
upperneck 10.121 -4.79663 4.91566
head 4.19773 -2.34097 2.21608
rclavicle 2.27585e-014 -1.12065e-014
rhumerus 15.4648 22.0754 -67.1511
rradius 78.2845
rwrist -6.61283
rhand 5.58106 -39.8849
rfingers 7.12502
rthumb 30.924 -67.3008
lclavicle 2.27585e-014 -1.12065e-014
lhumerus 13.0491 -16.4335 70.7417
lradius 75.158
lwrist 1.23757
lhand 19.4143 -2.14007
lfingers 7.12502
lthumb 43.9891 21.7469
rfemur -71.5882 -25.8928 19.1462
rtibia 40.0447
rfoot 171.7 13.2648
rtoes 39.0697
lfemur -71.5251 12.7708 -22.1982
ltibia 43.3445
lfoot 173.037 10.2698
ltoes -4.5208
277
root 0.861559 4.07986 -2.80408 -61.3644 3.88318 -2.40107
lowerback 55.6107 -0.843884 -3.45697
upperback 11.6906 -2.95704 0.143492
thorax -7.91053 -1.4738 2.99866
lowerneck -5.50003 -3.47547 -5.91391
upperneck 10.4006 -4.61512 4.5385
head 4.2521 -2.27062 2.10381
rclavicle -3.43923e-014 -1.20265e-014
rhumerus 15.3822 22.2564 -67.1325
rradius 77.9401
rwrist -6.88116
rhand 5.34276 -39.6837
rfingers 7.12502
rthumb 30.6968 -67.1425
lclavicle -3.43923e-014 -1.20265e-014
lhumerus 13.0081 -16.4532 70.8012
lradius 74.6746
lwrist 1.24542
lhand 19.0785 -2.35265
lfingers 7.12502
lthumb 43.6757 21.6501
rfemur -71.3521 -25.8234 19.0737
rtibia 40.1508
rfoot 171.686 13.2591
rtoes 39.2158
lfemur -71.3256 12.8941 -22.1309
ltibia 43.4002
lfoot 173.058 10.2639
ltoes -4.63294
278
root 0.860747 4.07679 -2.81648 -61.6227 3.79093 -2.37353
lowerback 55.6413 -0.816018 -3.46162
upperback 11.6674 -2.93278 0.132776
thorax -7.94048 -1.46188 2.97933
lowerneck -5.45155 -3.36201 -5.77062
upperneck 10.5841 -4.43845 4.13492
head 4.27879 -2.20019 1.96701
rclavicle 1.60839e-014 1.06101e-014
rhumerus 15.4034 22.4381 -67.1017
rradius 77.5576
rwrist -7.40299
rhand 4.86665 -39.4612
rfingers 7.12502
rthumb 30.2428 -67.0043
lclavicle 1.60839e-014 1.06101e-014
lhumerus 13.0283 -16.5317 70.7214
lradius 74.1847
lwrist 1.44509
lhand 18.5915 -2.77972
lfingers 7.12502
lthumb 43.2208 21.3877
rfemur -71.034 -25.7677 19.0261
rtibia 40.2675
rfoot 171.786 13.2821
rtoes 38.7855
lfemur -71.0349 13.0108 -21.9943
ltibia 43.5103
lfoot 173.071 10.3041
ltoes -4.56037
279
root 0.861336 4.07507 -2.82775 -61.9338 3.67311 -2.41944
lowerback 55.547 -0.811308 -3.43653
upperback 11.8015 -2.90519 0.169492
thorax -7.78278 -1.45914 2.99282
lowerneck -5.50895 -3.24146 -5.69807
upperneck 10.6607 -4.24537 3.81683
head 4.29409 -2.11854 1.86762
rclavicle 3.48067e-016 2.59041e-015
rhumerus 15.6459 22.5668 -66.9258
rradius 77.1744
rwrist -8.11275
rhand 4.16868 -39.1032
rfingers 7.12502
rthumb 29.5767 -66.7663
lclavicle 3.48067e-016 2.59041e-015
lhumerus 13.2293 -16.5636 70.5559
lradius 73.708
lwrist 1.93861
lhand 17.8377 -3.69212
lfingers 7.12502
lthumb 42.5157 20.7227
rfemur -70.6083 -25.7583 18.9632
rtibia 40.4199
rfoot 171.808 13.2727
rtoes 39.0952
lfemur -70.6797 13.0728 -21.787
ltibia 43.6369
lfoot 173.16 10.3573
ltoes -4.37678
280
root 0.8595 4.0718 -2.83921 -62.3017 3.58794 -2.41779
lowerback 55.7231 -0.805899 -3.35233
upperback 11.7767 -2.86072 0.15126
thorax -7.83082 -1.4341 2.91641
lowerneck -5.6233 -3.18635 -5.62225
upperneck 10.9459 -4.13853 3.46611
head 4.38677 -2.08163 1.75085
rclavicle -1.39033e-015 -1.35034e-015
rhumerus 15.5879 22.6352 -66.7929
rradius 76.8554
rwrist -9.04183
rhand 3.22587 -38.7318
rfingers 7.12502
rthumb 28.6764 -66.5508
lclavicle -1.39033e-015 -1.35034e-015
lhumerus 13.3574 -16.7865 70.3834
lradius 73.2468
lwrist 2.98883
lhand 16.7608 -4.96164
lfingers 7.12502
lthumb 41.5065 19.7916
rfemur -70.1153 -25.7125 18.8367
rtibia 40.5743
rfoot 171.842 13.2147
rtoes 39.3481
lfemur -70.2539 13.1542 -21.6074
ltibia 43.7549
lfoot 173.253 10.3851
ltoes -4.19217
281
root 0.855319 4.06751 -2.85205 -62.638 3.53924 -2.36563
lowerback 55.8575 -0.776137 -3.34142
upperback 11.7848 -2.83275 0.0940143
thorax -7.83572 -1.41764 2.83616
lowerneck -5.95477 -3.16771 -5.55878
upperneck 11.3788 -4.07644 3.178
head 4.56526 -2.06324 1.6487
rclavicle -3.95908e-014 5.2181e-016
rhumerus 15.6479 22.7346 -66.6351
rradius 76.5241
rwrist -10.1994
rhand 2.08789 -38.6403
rfingers 7.12502
rthumb 27.5886 -66.6381
lclavicle -3.95908e-014 5.2181e-016
lhumerus 13.57 -16.9948 70.0771
lradius 72.8327
lwrist 4.77131
lhand 15.2099 -6.12426
lfingers 7.12502
lthumb 40.0492 19.0869
rfemur -69.6953 -25.636 18.7195
rtibia 40.6895
rfoot 171.894 13.2347
rtoes 39.4631
lfemur -69.9233 13.2355 -21.4793
ltibia 43.8414
lfoot 173.355 10.4207
ltoes -4.03696
282
root 0.849505 4.06177 -2.86346 -62.853 3.6236 -2.24026
lowerback 55.8612 -0.700865 -3.45563
upperback 11.7848 -2.82006 0.0110996
thorax -7.83472 -1.40827 2.79064
lowerneck -6.25474 -3.17182 -5.61941
upperneck 11.7608 -4.05482 3.08615
head 4.73165 -2.05977 1.6254
rclavicle -2.45577e-014 -1.83876e-014
rhumerus 15.6943 22.7693 -66.5029
rradius 76.1873
rwrist -11.3236
rhand 0.816937 -38.7425
rfingers 7.12502
rthumb 26.3726 -66.9285
lclavicle -2.45577e-014 -1.83876e-014
lhumerus 13.7148 -17.2331 69.6825
lradius 72.5705
lwrist 7.00178
lhand 13.0174 -6.89413
lfingers 7.12502
lthumb 37.9823 18.9099
rfemur -69.4893 -25.5822 18.5291
rtibia 40.7383
rfoot 172.338 13.1796
rtoes 38.6645
lfemur -69.7707 13.2674 -21.5151
ltibia 43.9171
lfoot 173.477 10.5141
ltoes -3.92512
